<?xml version="1.0" encoding="UTF-8"?>
<svg width="954px" height="954px" viewBox="0 0 954 954" version="1.1" xmlns="http://www.w3.org/2000/svg" xmlns:xlink="http://www.w3.org/1999/xlink">
    <!-- Generator: Sketch 51.3 (57544) - http://www.bohemiancoding.com/sketch -->
    <title>Logo bleu</title>
    <desc>Created with Sketch.</desc>
    <defs></defs>
    <g id="Symbols" stroke="none" stroke-width="1" fill="none" fill-rule="evenodd">
        <g id="Logo-bleu">
            <g>
                <rect id="Rectangle-1" stroke="#0050A0" stroke-width="29" fill="#0050A0" x="14.5" y="14.5" width="925" height="925" rx="16"></rect>
                <g id="Font" transform="translate(85.000000, 144.000000)" fill="#FFFFFF">
                    <path d="M400.617432,176.121637 C392.838057,176.121637 385.736537,174.736693 379.312659,171.966764 C372.888782,169.196836 367.378474,165.218806 362.781571,160.032556 C358.184667,154.846306 354.619174,148.540392 352.084984,141.114625 C349.550794,133.688859 348.283717,125.261329 348.283717,115.831784 C348.283717,106.402239 349.550794,98.0041758 352.084984,90.6373436 C354.619174,83.2705114 358.184667,77.0824652 362.781571,72.0730193 C367.378474,67.0635734 372.888782,63.2328781 379.312659,60.5808185 C385.736537,57.9287589 392.838057,56.602749 400.617432,56.602749 C408.396806,56.602749 415.498326,57.9287589 421.922204,60.5808185 C428.346082,63.2328781 433.856389,67.0930403 438.453293,72.1614208 C443.050196,77.2298014 446.615689,83.4473145 449.14988,90.8141467 C451.68407,98.1809789 452.951146,106.520108 452.951146,115.831784 C452.951146,125.261329 451.68407,133.688859 449.14988,141.114625 C446.615689,148.540392 443.050196,154.846306 438.453293,160.032556 C433.856389,165.218806 428.346082,169.196836 421.922204,171.966764 C415.498326,174.736693 408.396806,176.121637 400.617432,176.121637 Z M400.617432,153.667645 C408.514676,153.667645 414.761656,150.278953 419.358559,143.501467 C423.955462,136.723982 426.25388,127.500846 426.25388,115.831784 C426.25388,104.280591 423.955462,95.2637235 419.358559,88.7809112 C414.761656,82.2980989 408.514676,79.0567413 400.617432,79.0567413 C392.720188,79.0567413 386.473208,82.2980989 381.876304,88.7809112 C377.279401,95.2637235 374.980984,104.280591 374.980984,115.831784 C374.980984,127.500846 377.279401,136.723982 381.876304,143.501467 C386.473208,150.278953 392.720188,153.667645 400.617432,153.667645 Z M471.397926,174 L471.397926,58.7243861 L511.001818,58.7243861 C517.366761,58.7243861 523.319072,59.3431907 528.85893,60.5808185 C534.398788,61.8184463 539.231357,63.8811284 543.356783,66.7689266 C547.482209,69.6567249 550.753034,73.4874201 553.169355,78.2611274 C555.585675,83.0348347 556.793818,88.8987452 556.793818,95.8530347 C556.793818,102.571586 555.585675,108.406029 553.169355,113.356541 C550.753034,118.307052 547.482209,122.373482 543.356783,125.555954 C539.231357,128.738425 534.457721,131.095776 529.035733,132.628077 C523.613744,134.160378 517.838235,134.926517 511.70903,134.926517 L497.38798,134.926517 L497.38798,174 L471.397926,174 Z M497.38798,114.240556 L510.117802,114.240556 C524.26212,114.240556 531.334173,108.111444 531.334173,95.8530347 C531.334173,89.8416997 529.448292,85.598468 525.676474,83.1232124 C521.904656,80.6479567 516.482749,79.4103475 509.41059,79.4103475 L497.38798,79.4103475 L497.38798,114.240556 Z M573.472567,174 L573.472567,58.7243861 L645.608227,58.7243861 L645.608227,80.6479691 L599.462621,80.6479691 L599.462621,103.809174 L638.712907,103.809174 L638.712907,125.555954 L599.462621,125.555954 L599.462621,152.076417 L647.376258,152.076417 L647.376258,174 L573.472567,174 Z M667.06066,174 L667.06066,58.7243861 L693.757926,58.7243861 L723.814451,116.008587 L735.129849,141.468232 L735.837061,141.468232 C735.247715,135.339027 734.569976,128.50271 733.803826,120.959073 C733.037675,113.415437 732.654606,106.225517 732.654606,99.3890965 L732.654606,58.7243861 L757.407038,58.7243861 L757.407038,174 L730.709772,174 L700.653247,116.538996 L689.337849,91.4329575 L688.630636,91.4329575 C689.219983,97.7979006 689.897721,104.634218 690.663872,111.942116 C691.430023,119.250013 691.813092,126.322066 691.813092,133.158486 L691.813092,174 L667.06066,174 Z" id="OPEN"></path>
                    <path d="M15.4966708,616.370079 L15.4966708,501.094465 L55.1005627,501.094465 C61.4655057,501.094465 67.4178169,501.713269 72.9576747,502.950897 C78.4975325,504.188525 83.3301019,506.251207 87.455528,509.139005 C91.580954,512.026804 94.8517784,515.857499 97.2680994,520.631206 C99.6844203,525.404913 100.892563,531.268824 100.892563,538.223113 C100.892563,544.941664 99.6844203,550.776108 97.2680994,555.726619 C94.8517784,560.677131 91.580954,564.743561 87.455528,567.926032 C83.3301019,571.108504 78.5564663,573.465855 73.1344778,574.998156 C67.7124893,576.530457 61.9369794,577.296596 55.8077751,577.296596 L41.4867249,577.296596 L41.4867249,616.370079 L15.4966708,616.370079 Z M41.4867249,556.610635 L54.2165473,556.610635 C68.3608651,556.610635 75.4329179,550.481522 75.4329179,538.223113 C75.4329179,532.211778 73.5470372,527.968547 69.7752191,525.493291 C66.003401,523.018035 60.5814938,521.780426 53.5093349,521.780426 L41.4867249,521.780426 L41.4867249,556.610635 Z M164.42413,618.491716 C156.644756,618.491716 149.543236,617.106772 143.119358,614.336843 C136.69548,611.566914 131.185173,607.588885 126.588269,602.402635 C121.991366,597.216385 118.425873,590.910471 115.891682,583.484704 C113.357492,576.058937 112.090416,567.631408 112.090416,558.201863 C112.090416,548.772317 113.357492,540.374255 115.891682,533.007422 C118.425873,525.64059 121.991366,519.452544 126.588269,514.443098 C131.185173,509.433652 136.69548,505.602957 143.119358,502.950897 C149.543236,500.298838 156.644756,498.972828 164.42413,498.972828 C172.203505,498.972828 179.305025,500.298838 185.728903,502.950897 C192.15278,505.602957 197.663088,509.463119 202.259991,514.5315 C206.856895,519.59988 210.422388,525.817393 212.956578,533.184225 C215.490768,540.551058 216.757845,548.890187 216.757845,558.201863 C216.757845,567.631408 215.490768,576.058937 212.956578,583.484704 C210.422388,590.910471 206.856895,597.216385 202.259991,602.402635 C197.663088,607.588885 192.15278,611.566914 185.728903,614.336843 C179.305025,617.106772 172.203505,618.491716 164.42413,618.491716 Z M164.42413,596.037724 C172.321374,596.037724 178.568354,592.649032 183.165258,585.871546 C187.762161,579.09406 190.060578,569.870925 190.060578,558.201863 C190.060578,546.65067 187.762161,537.633802 183.165258,531.15099 C178.568354,524.668178 172.321374,521.42682 164.42413,521.42682 C156.526886,521.42682 150.279906,524.668178 145.683003,531.15099 C141.0861,537.633802 138.787682,546.65067 138.787682,558.201863 C138.787682,569.870925 141.0861,579.09406 145.683003,585.871546 C150.279906,592.649032 156.526886,596.037724 164.42413,596.037724 Z M235.204625,616.370079 L235.204625,501.094465 L261.194679,501.094465 L261.194679,594.446496 L306.809876,594.446496 L306.809876,616.370079 L235.204625,616.370079 Z M323.488625,616.370079 L323.488625,501.094465 L349.478679,501.094465 L349.478679,616.370079 L323.488625,616.370079 Z M395.860347,616.370079 L395.860347,523.018048 L364.212594,523.018048 L364.212594,501.094465 L453.674957,501.094465 L453.674957,523.018048 L422.027204,523.018048 L422.027204,616.370079 L395.860347,616.370079 Z M468.408872,616.370079 L468.408872,501.094465 L494.398926,501.094465 L494.398926,616.370079 L468.408872,616.370079 Z M566.417042,618.491716 C559.109144,618.491716 552.213893,617.22464 545.73108,614.690449 C539.248268,612.156259 533.561159,608.413964 528.669582,603.463453 C523.778006,598.512942 519.917844,592.354363 517.08898,584.98753 C514.260116,577.620698 512.845706,569.104768 512.845706,559.439484 C512.845706,549.89207 514.31905,541.376139 517.265783,533.891438 C520.212516,526.406736 524.161079,520.071356 529.11159,514.885106 C534.062101,509.698856 539.837611,505.750293 546.438293,503.039299 C553.038974,500.328305 559.99316,498.972828 567.301057,498.972828 C574.726824,498.972828 581.38634,500.475639 587.279806,503.481307 C593.173272,506.486974 598.064775,509.993534 601.954463,514.00109 L588.163822,530.620581 C585.217089,527.909586 582.123066,525.69957 578.88166,523.990465 C575.640253,522.28136 571.956892,521.42682 567.831466,521.42682 C563.941779,521.42682 560.258418,522.28136 556.781273,523.990465 C553.304129,525.69957 550.298506,528.145322 547.764316,531.327793 C545.230126,534.510265 543.226377,538.399894 541.753011,542.996797 C540.279644,547.5937 539.542972,552.779872 539.542972,558.555469 C539.542972,570.46027 542.077125,579.683405 547.145505,586.225152 C552.213886,592.766899 558.99127,596.037724 567.47786,596.037724 C572.192633,596.037724 576.406398,595.006382 580.119281,592.943669 C583.832165,590.880956 587.102989,588.317337 589.931853,585.252735 L603.722493,601.518619 C594.05721,612.834074 581.622183,618.491716 566.417042,618.491716 Z M648.159328,618.491716 C640.615691,618.491716 633.101635,617.106772 625.616934,614.336843 C618.132232,611.566914 611.443249,607.412083 605.549783,601.872225 L620.401243,584.015113 C624.526669,587.551193 629.094036,590.438948 634.103482,592.678465 C639.112928,594.917982 644.033898,596.037724 648.86654,596.037724 C654.288528,596.037724 658.325492,595.035849 660.977551,593.032071 C663.629611,591.028293 664.955621,588.317339 664.955621,584.899129 C664.955621,583.131089 664.572551,581.598811 663.806401,580.302249 C663.04025,579.005686 661.920509,577.856478 660.447142,576.854588 C658.973776,575.852699 657.205763,574.909759 655.14305,574.025739 L648.336131,571.108488 L633.307868,564.743577 C630.361135,563.564884 627.502847,562.032606 624.732918,560.146697 C621.962989,558.260787 619.487771,556.050771 617.307189,553.516581 C615.126606,550.98239 613.38806,548.035702 612.091497,544.676426 C610.794935,541.317151 610.146663,537.515922 610.146663,533.272627 C610.146663,528.557854 611.148538,524.108354 613.152316,519.923994 C615.156094,515.739633 617.984915,512.085739 621.638864,508.962202 C625.292813,505.838665 629.624445,503.392914 634.633891,501.624874 C639.643337,499.856834 645.153645,498.972828 651.16498,498.972828 C657.883531,498.972828 664.513581,500.269371 671.055328,502.862496 C677.597075,505.455621 683.343117,509.227382 688.293629,514.177893 L675.033397,530.620581 C671.261579,527.673848 667.489817,525.404898 663.717999,523.813662 C659.946181,522.222426 655.761883,521.42682 651.16498,521.42682 C646.685946,521.42682 643.120453,522.340294 640.468393,524.167268 C637.816334,525.994242 636.490324,528.557861 636.490324,531.858202 C636.490324,533.626242 636.932327,535.129053 637.816347,536.366681 C638.700367,537.604309 639.937976,538.724051 641.529212,539.72594 C643.120447,540.727829 644.976861,541.670769 647.098509,542.554789 C649.220157,543.438809 651.518574,544.411216 653.993829,545.47204 L668.845289,551.483345 C675.917448,554.312209 681.486689,558.201838 685.553181,563.152349 C689.619672,568.10286 691.652887,574.644509 691.652887,582.777492 C691.652887,587.610134 690.68048,592.177501 688.735636,596.479731 C686.790793,600.781961 683.961972,604.553723 680.249088,607.795129 C676.536205,611.036535 671.968837,613.629621 666.546849,615.574465 C661.12486,617.519309 654.995748,618.491716 648.159328,618.491716 Z M752.945274,618.491716 C748.46624,618.491716 744.723945,616.929971 741.718277,613.806434 C738.71261,610.682897 737.209799,606.822735 737.209799,602.225832 C737.209799,597.511059 738.71261,593.591963 741.718277,590.468426 C744.723945,587.344889 748.46624,585.783144 752.945274,585.783144 C757.424308,585.783144 761.166602,587.344889 764.17227,590.468426 C767.177937,593.591963 768.680748,597.511059 768.680748,602.225832 C768.680748,606.822735 767.177937,610.682897 764.17227,613.806434 C761.166602,616.929971 757.424308,618.491716 752.945274,618.491716 Z" id="POLITICS-."></path>
                    <path d="M192.499669,396.468094 C184.956033,396.468094 177.441977,395.08315 169.957275,392.313221 C162.472574,389.543292 155.78359,385.388461 149.890125,379.848603 L164.741584,361.991491 C168.86701,365.527571 173.434377,368.415326 178.443823,370.654843 C183.453269,372.89436 188.374239,374.014101 193.206881,374.014101 C198.62887,374.014101 202.665833,373.012227 205.317893,371.008449 C207.969952,369.004671 209.295962,366.293717 209.295962,362.875507 C209.295962,361.107467 208.912893,359.575189 208.146742,358.278627 C207.380592,356.982064 206.26085,355.832856 204.787484,354.830966 C203.314117,353.829077 201.546104,352.886137 199.483391,352.002117 L192.676472,349.084866 L177.648209,342.719955 C174.701477,341.541262 171.843189,340.008983 169.07326,338.123074 C166.303331,336.237165 163.828112,334.027149 161.64753,331.492959 C159.466948,328.958768 157.728401,326.01208 156.431839,322.652804 C155.135276,319.293529 154.487005,315.4923 154.487005,311.249005 C154.487005,306.534232 155.488879,302.084732 157.492657,297.900372 C159.496436,293.716011 162.325257,290.062117 165.979206,286.93858 C169.633154,283.815043 173.964787,281.369292 178.974233,279.601252 C183.983679,277.833212 189.493986,276.949206 195.505321,276.949206 C202.223872,276.949206 208.853922,278.245749 215.395669,280.838874 C221.937416,283.431999 227.683459,287.20376 232.63397,292.154271 L219.373738,308.596959 C215.60192,305.650226 211.830159,303.381275 208.058341,301.79004 C204.286523,300.198804 200.102225,299.403198 195.505321,299.403198 C191.026287,299.403198 187.460794,300.316671 184.808735,302.143646 C182.156675,303.97062 180.830665,306.534239 180.830665,309.83458 C180.830665,311.60262 181.272668,313.105431 182.156688,314.343059 C183.040708,315.580687 184.278317,316.700429 185.869553,317.702318 C187.460789,318.704207 189.317203,319.647147 191.43885,320.531167 C193.560498,321.415187 195.858915,322.387594 198.334171,323.448418 L213.18563,329.459723 C220.257789,332.288587 225.827031,336.178216 229.893522,341.128727 C233.960014,346.079238 235.993229,352.620887 235.993229,360.75387 C235.993229,365.586512 235.020822,370.153879 233.075978,374.456109 C231.131134,378.758339 228.302313,382.530101 224.58943,385.771507 C220.876546,389.012913 216.309179,391.605999 210.88719,393.550843 C205.465202,395.495686 199.336089,396.468094 192.499669,396.468094 Z M299.17119,396.468094 C291.391815,396.468094 284.290296,395.08315 277.866418,392.313221 C271.44254,389.543292 265.932233,385.565263 261.335329,380.379013 C256.738426,375.192763 253.172933,368.886849 250.638742,361.461082 C248.104552,354.035315 246.837476,345.607786 246.837476,336.17824 C246.837476,326.748695 248.104552,318.350633 250.638742,310.9838 C253.172933,303.616968 256.738426,297.428922 261.335329,292.419476 C265.932233,287.41003 271.44254,283.579335 277.866418,280.927275 C284.290296,278.275216 291.391815,276.949206 299.17119,276.949206 C306.950565,276.949206 314.052085,278.275216 320.475962,280.927275 C326.89984,283.579335 332.410148,287.439497 337.007051,292.507878 C341.603955,297.576258 345.169448,303.793771 347.703638,311.160603 C350.237828,318.527436 351.504905,326.866565 351.504905,336.17824 C351.504905,345.607786 350.237828,354.035315 347.703638,361.461082 C345.169448,368.886849 341.603955,375.192763 337.007051,380.379013 C332.410148,385.565263 326.89984,389.543292 320.475962,392.313221 C314.052085,395.08315 306.950565,396.468094 299.17119,396.468094 Z M299.17119,374.014101 C307.068434,374.014101 313.315414,370.625409 317.912318,363.847924 C322.509221,357.070438 324.807638,347.847303 324.807638,336.17824 C324.807638,324.627048 322.509221,315.61018 317.912318,309.127368 C313.315414,302.644556 307.068434,299.403198 299.17119,299.403198 C291.273946,299.403198 285.026966,302.644556 280.430063,309.127368 C275.83316,315.61018 273.534742,324.627048 273.534742,336.17824 C273.534742,347.847303 275.83316,357.070438 280.430063,363.847924 C285.026966,370.625409 291.273946,374.014101 299.17119,374.014101 Z M415.390078,396.468094 C400.420675,396.468094 388.987523,392.048061 381.090279,383.207862 C373.193035,374.367663 369.244472,360.282492 369.244472,340.951924 L369.244472,279.070843 L395.411329,279.070843 L395.411329,343.60397 C395.411329,354.919424 397.120409,362.81655 400.538619,367.295584 C403.956829,371.774618 408.907266,374.014101 415.390078,374.014101 C421.872891,374.014101 426.882261,371.774618 430.418341,367.295584 C433.95442,362.81655 435.722434,354.919424 435.722434,343.60397 L435.722434,279.070843 L460.828472,279.070843 L460.828472,340.951924 C460.828472,360.282492 456.96831,374.367663 449.24787,383.207862 C441.52743,392.048061 430.241612,396.468094 415.390078,396.468094 Z M484.225739,394.346457 L484.225739,279.070843 L525.774464,279.070843 C531.903669,279.070843 537.649712,279.660181 543.012766,280.838874 C548.375819,282.017567 553.061054,283.991848 557.068611,286.761777 C561.076168,289.531706 564.258592,293.215067 566.615978,297.81197 C568.973364,302.408873 570.15204,308.12545 570.15204,314.96187 C570.15204,323.448461 568.295626,330.432113 564.582742,335.913036 C560.869859,341.393959 555.889955,345.489856 549.642881,348.200851 L575.809739,394.346457 L546.637229,394.346457 L524.536843,352.797731 L510.215793,352.797731 L510.215793,394.346457 L484.225739,394.346457 Z M510.215793,332.111769 L523.652827,332.111769 C530.489248,332.111769 535.704887,330.667892 539.299901,327.780094 C542.894915,324.892296 544.692395,320.619597 544.692395,314.96187 C544.692395,309.304143 542.894915,305.35558 539.299901,303.116063 C535.704887,300.876546 530.489248,299.756804 523.652827,299.756804 L510.215793,299.756804 L510.215793,332.111769 Z M637.396472,396.468094 C630.088575,396.468094 623.193323,395.201018 616.710511,392.666827 C610.227698,390.132637 604.540589,386.390342 599.649013,381.439831 C594.757436,376.48932 590.897274,370.330741 588.06841,362.963908 C585.239547,355.597076 583.825136,347.081146 583.825136,337.415862 C583.825136,327.868448 585.298481,319.352517 588.245214,311.867816 C591.191946,304.383114 595.140509,298.047734 600.09102,292.861484 C605.041532,287.675234 610.817042,283.726671 617.417723,281.015677 C624.018405,278.304683 630.97259,276.949206 638.280488,276.949206 C645.706255,276.949206 652.365771,278.452017 658.259237,281.457684 C664.152702,284.463352 669.044206,287.969912 672.933893,291.977468 L659.143252,308.596959 C656.196519,305.885964 653.102496,303.675948 649.86109,301.966843 C646.619684,300.257738 642.936323,299.403198 638.810897,299.403198 C634.92121,299.403198 631.237849,300.257738 627.760704,301.966843 C624.283559,303.675948 621.277937,306.121699 618.743746,309.304171 C616.209556,312.486642 614.205808,316.376272 612.732441,320.973175 C611.259075,325.570078 610.522403,330.75625 610.522403,336.531847 C610.522403,348.436647 613.056555,357.659783 618.124936,364.20153 C623.193316,370.743277 629.9707,374.014101 638.457291,374.014101 C643.172063,374.014101 647.385828,372.98276 651.098712,370.920047 C654.811595,368.857334 658.082419,366.293715 660.911283,363.229113 L674.701924,379.494997 C665.03664,390.810451 652.601614,396.468094 637.396472,396.468094 Z M688.90543,394.346457 L688.90543,279.070843 L761.04109,279.070843 L761.04109,300.994426 L714.895484,300.994426 L714.895484,324.15563 L754.14577,324.15563 L754.14577,345.90241 L714.895484,345.90241 L714.895484,372.422874 L762.809121,372.422874 L762.809121,394.346457 L688.90543,394.346457 Z" id="SOURCE"></path>
                </g>
            </g>
        </g>
    </g>
</svg>