<svg height="954" viewBox="0 0 954 954" width="954" xmlns="http://www.w3.org/2000/svg"><g fill="none" fill-rule="evenodd"><rect fill="#0050a0" height="925" rx="16" stroke="#0050a0" stroke-width="29" width="925" x="14.5" y="14.5"/><g fill="#fff" transform="translate(85 144)"><path d="m400.617432 176.121637c-7.779375 0-14.880895-1.384944-21.304773-4.154873-6.423877-2.769928-11.934185-6.747958-16.531088-11.934208-4.596904-5.18625-8.162397-11.492164-10.696587-18.917931-2.53419-7.425766-3.801267-15.853296-3.801267-25.282841s1.267077-17.8276082 3.801267-25.1944404 6.099683-13.5548784 10.696587-18.5643243c4.596903-5.0094459 10.107211-8.8401412 16.531088-11.4922008 6.423878-2.6520596 13.525398-3.9780695 21.304773-3.9780695 7.779374 0 14.880894 1.3260099 21.304772 3.9780695s11.934185 6.5122218 16.531089 11.5806023c4.596903 5.0683806 8.162396 11.2858937 10.696587 18.6527259 2.53419 7.3668322 3.801266 15.7059613 3.801266 25.0176373 0 9.429545-1.267076 17.857075-3.801266 25.282841-2.534191 7.425767-6.099684 13.731681-10.696587 18.917931-4.596904 5.18625-10.107211 9.16428-16.531089 11.934208-6.423878 2.769929-13.525398 4.154873-21.304772 4.154873zm0-22.453992c7.897244 0 14.144224-3.388692 18.741127-10.166178 4.596903-6.777485 6.895321-16.000621 6.895321-27.669683 0-11.551193-2.298418-20.5680605-6.895321-27.0508728s-10.843883-9.7241699-18.741127-9.7241699-14.144224 3.2413576-18.741128 9.7241699c-4.596903 6.4828123-6.89532 15.4996798-6.89532 27.0508728 0 11.669062 2.298417 20.892198 6.89532 27.669683 4.596904 6.777486 10.843884 10.166178 18.741128 10.166178zm70.780494 20.332355v-115.2756139h39.603892c6.364943 0 12.317254.6188046 17.857112 1.8564324s10.372427 3.3003099 14.497853 6.1881081c4.125426 2.8877983 7.396251 6.7184935 9.812572 11.4922008 2.41632 4.7737073 3.624463 10.6376178 3.624463 17.5919073 0 6.7185513-1.208143 12.5529943-3.624463 17.5035063-2.416321 4.950511-5.687146 9.016941-9.812572 12.199413-4.125426 3.182471-8.899062 5.539822-14.32105 7.072123-5.421989 1.532301-11.197498 2.29844-17.326703 2.29844h-14.32105v39.073483zm25.990054-59.759444h12.729822c14.144318 0 21.216371-6.129112 21.216371-18.3875213 0-6.011335-1.885881-10.2545667-5.657699-12.7298223-3.771818-2.4752557-9.193725-3.7128649-16.265884-3.7128649h-12.02261zm76.084587 59.759444v-115.2756139h72.13566v21.923583h-46.145606v23.1612049h39.250286v21.74678h-39.250286v26.520463h47.913637v21.923583zm93.588093 0v-115.2756139h26.697266l30.056525 57.2842009 11.315398 25.459645h.707212c-.589346-6.129205-1.267085-12.965522-2.033235-20.509159-.766151-7.543636-1.14922-14.733556-1.14922-21.5699765v-40.6647104h24.752432v115.2756139h-26.697266l-30.056525-57.461004-11.315398-25.1060385h-.707213c.589347 6.3649431 1.267085 13.2012605 2.033236 20.5091585.766151 7.307897 1.14922 14.37995 1.14922 21.21637v40.841514z"/><path d="m15.4966708 616.370079v-115.275614h39.6038919c6.364943 0 12.3172542.618804 17.857112 1.856432s10.3724272 3.30031 14.4978533 6.188108c4.125426 2.887799 7.3962504 6.718494 9.8125714 11.492201 2.4163209 4.773707 3.6244636 10.637618 3.6244636 17.591907 0 6.718551-1.2081427 12.552995-3.6244636 17.503506-2.416321 4.950512-5.6871454 9.016942-9.8125714 12.199413-4.1254261 3.182472-8.8990617 5.539823-14.3210502 7.072124s-11.1974984 2.29844-17.3267027 2.29844h-14.3210502v39.073483zm25.9900541-59.759444h12.7298224c14.1443178 0 21.2163706-6.129113 21.2163706-18.387522 0-6.011335-1.8858807-10.254566-5.6576988-12.729822s-9.1937253-3.712865-16.2658842-3.712865h-12.02261zm122.9374051 61.881081c-7.779374 0-14.880894-1.384944-21.304772-4.154873s-11.934185-6.747958-16.531089-11.934208c-4.596903-5.18625-8.162396-11.492164-10.696587-18.917931-2.53419-7.425767-3.801266-15.853296-3.801266-25.282841 0-9.429546 1.267076-17.827608 3.801266-25.194441 2.534191-7.366832 6.099684-13.554878 10.696587-18.564324 4.596904-5.009446 10.107211-8.840141 16.531089-11.492201 6.423878-2.652059 13.525398-3.978069 21.304772-3.978069 7.779375 0 14.880895 1.32601 21.304773 3.978069 6.423877 2.65206 11.934185 6.512222 16.531088 11.580603 4.596904 5.06838 8.162397 11.285893 10.696587 18.652725 2.53419 7.366833 3.801267 15.705962 3.801267 25.017638 0 9.429545-1.267077 17.857074-3.801267 25.282841s-6.099683 13.731681-10.696587 18.917931c-4.596903 5.18625-10.107211 9.164279-16.531088 11.934208-6.423878 2.769929-13.525398 4.154873-21.304773 4.154873zm0-22.453992c7.897244 0 14.144224-3.388692 18.741128-10.166178 4.596903-6.777486 6.89532-16.000621 6.89532-27.669683 0-11.551193-2.298417-20.568061-6.89532-27.050873-4.596904-6.482812-10.843884-9.72417-18.741128-9.72417s-14.144224 3.241358-18.741127 9.72417-6.895321 15.49968-6.895321 27.050873c0 11.669062 2.298418 20.892197 6.895321 27.669683s10.843883 10.166178 18.741127 10.166178zm70.780495 20.332355v-115.275614h25.990054v93.352031h45.615197v21.923583zm88.284 0v-115.275614h25.990054v115.275614zm72.371722 0v-93.352031h-31.647753v-21.923583h89.462363v21.923583h-31.647753v93.352031zm72.548525 0v-115.275614h25.990054v115.275614zm98.00817 2.121637c-7.307898 0-14.203149-1.267076-20.685962-3.801267-6.482812-2.53419-12.169921-6.276485-17.061498-11.226996-4.891576-4.950511-8.751738-11.10909-11.580602-18.475923-2.828864-7.366832-4.243274-15.882762-4.243274-25.548046 0-9.547414 1.473344-18.063345 4.420077-25.548046 2.946733-7.484702 6.895296-13.820082 11.845807-19.006332s10.726021-9.134813 17.326703-11.845807c6.600681-2.710994 13.554867-4.066471 20.862764-4.066471 7.425767 0 14.085283 1.502811 19.978749 4.508479 5.893466 3.005667 10.784969 6.512227 14.674657 10.519783l-13.790641 16.619491c-2.946733-2.710995-6.040756-4.921011-9.282162-6.630116-3.241407-1.709105-6.924768-2.563645-11.050194-2.563645-3.889687 0-7.573048.85454-11.050193 2.563645-3.477144 1.709105-6.482767 4.154857-9.016957 7.337328-2.53419 3.182472-4.537939 7.072101-6.011305 11.669004-1.473367 4.596903-2.210039 9.783075-2.210039 15.558672 0 11.904801 2.534153 21.127936 7.602533 27.669683 5.068381 6.541747 11.845765 9.812572 20.332355 9.812572 4.714773 0 8.928538-1.031342 12.641421-3.094055 3.712884-2.062713 6.983708-4.626332 9.812572-7.690934l13.79064 16.265884c-9.665283 11.315455-22.10031 16.973097-37.305451 16.973097zm81.742286 0c-7.543637 0-15.057693-1.384944-22.542394-4.154873-7.484702-2.769929-14.173685-6.92476-20.067151-12.464618l14.85146-17.857112c4.125426 3.53608 8.692793 6.423835 13.702239 8.663352s9.930416 3.359259 14.763058 3.359259c5.421988 0 9.458952-1.001875 12.111011-3.005653 2.65206-2.003778 3.97807-4.714732 3.97807-8.132942 0-1.76804-.38307-3.300318-1.14922-4.59688-.766151-1.296563-1.885892-2.445771-3.359259-3.447661-1.473366-1.001889-3.241379-1.944829-5.304092-2.828849l-6.806919-2.917251-15.028263-6.364911c-2.946733-1.178693-5.805021-2.710971-8.57495-4.59688-2.769929-1.88591-5.245147-4.095926-7.425729-6.630116-2.180583-2.534191-3.919129-5.480879-5.215692-8.840155-1.296562-3.359275-1.944834-7.160504-1.944834-11.403799 0-4.714773 1.001875-9.164273 3.005653-13.348633 2.003778-4.184361 4.832599-7.838255 8.486548-10.961792s7.985581-5.569288 12.995027-7.337328 10.519754-2.652046 16.531089-2.652046c6.718551 0 13.348601 1.296543 19.890348 3.889668s12.287789 6.364886 17.238301 11.315397l-13.260232 16.442688c-3.771818-2.946733-7.54358-5.215683-11.315398-6.806919s-7.956116-2.386842-12.553019-2.386842c-4.479034 0-8.044527.913474-10.696587 2.740448-2.652059 1.826974-3.978069 4.390593-3.978069 7.690934 0 1.76804.442003 3.270851 1.326023 4.508479s2.121629 2.35737 3.712865 3.359259c1.591235 1.001889 3.447649 1.944829 5.569297 2.828849s4.420065 1.856427 6.89532 2.917251l14.85146 6.011305c7.072159 2.828864 12.6414 6.718493 16.707892 11.669004 4.066491 4.950511 6.099706 11.49216 6.099706 19.625143 0 4.832642-.972407 9.400009-2.917251 13.702239-1.944843 4.30223-4.773664 8.073992-8.486548 11.315398-3.712883 3.241406-8.280251 5.834492-13.702239 7.779336-5.421989 1.944844-11.551101 2.917251-18.387521 2.917251zm104.785946 0c-4.479034 0-8.221329-1.561745-11.226997-4.685282-3.005667-3.123537-4.508478-6.983699-4.508478-11.580602 0-4.714773 1.502811-8.633869 4.508478-11.757406 3.005668-3.123537 6.747963-4.685282 11.226997-4.685282s8.221328 1.561745 11.226996 4.685282c3.005667 3.123537 4.508478 7.042633 4.508478 11.757406 0 4.596903-1.502811 8.457065-4.508478 11.580602-3.005668 3.123537-6.747962 4.685282-11.226996 4.685282z"/><path d="m192.499669 396.468094c-7.543636 0-15.057692-1.384944-22.542394-4.154873-7.484701-2.769929-14.173685-6.92476-20.06715-12.464618l14.851459-17.857112c4.125426 3.53608 8.692793 6.423835 13.702239 8.663352s9.930416 3.359258 14.763058 3.359258c5.421989 0 9.458952-1.001874 12.111012-3.005652 2.652059-2.003778 3.978069-4.714732 3.978069-8.132942 0-1.76804-.383069-3.300318-1.14922-4.59688-.76615-1.296563-1.885892-2.445771-3.359258-3.447661-1.473367-1.001889-3.24138-1.944829-5.304093-2.828849l-6.806919-2.917251-15.028263-6.364911c-2.946732-1.178693-5.80502-2.710972-8.574949-4.596881s-5.245148-4.095925-7.42573-6.630115c-2.180582-2.534191-3.919129-5.480879-5.215691-8.840155-1.296563-3.359275-1.944834-7.160504-1.944834-11.403799 0-4.714773 1.001874-9.164273 3.005652-13.348633 2.003779-4.184361 4.8326-7.838255 8.486549-10.961792 3.653948-3.123537 7.985581-5.569288 12.995027-7.337328s10.519753-2.652046 16.531088-2.652046c6.718551 0 13.348601 1.296543 19.890348 3.889668s12.28779 6.364886 17.238301 11.315397l-13.260232 16.442688c-3.771818-2.946733-7.543579-5.215684-11.315397-6.806919-3.771818-1.591236-7.956116-2.386842-12.55302-2.386842-4.479034 0-8.044527.913473-10.696586 2.740448-2.65206 1.826974-3.97807 4.390593-3.97807 7.690934 0 1.76804.442003 3.270851 1.326023 4.508479s2.121629 2.35737 3.712865 3.359259 3.44765 1.944829 5.569297 2.828849c2.121648.88402 4.420065 1.856427 6.895321 2.917251l14.851459 6.011305c7.072159 2.828864 12.641401 6.718493 16.707892 11.669004 4.066492 4.950511 6.099707 11.49216 6.099707 19.625143 0 4.832642-.972407 9.400009-2.917251 13.702239s-4.773665 8.073992-8.486548 11.315398c-3.712884 3.241406-8.280251 5.834492-13.70224 7.779336-5.421988 1.944843-11.551101 2.917251-18.387521 2.917251zm106.671521 0c-7.779375 0-14.880894-1.384944-21.304772-4.154873s-11.934185-6.747958-16.531089-11.934208c-4.596903-5.18625-8.162396-11.492164-10.696587-18.917931-2.53419-7.425767-3.801266-15.853296-3.801266-25.282842 0-9.429545 1.267076-17.827607 3.801266-25.19444 2.534191-7.366832 6.099684-13.554878 10.696587-18.564324 4.596904-5.009446 10.107211-8.840141 16.531089-11.492201 6.423878-2.652059 13.525397-3.978069 21.304772-3.978069s14.880895 1.32601 21.304772 3.978069c6.423878 2.65206 11.934186 6.512222 16.531089 11.580603 4.596904 5.06838 8.162397 11.285893 10.696587 18.652725 2.53419 7.366833 3.801267 15.705962 3.801267 25.017637 0 9.429546-1.267077 17.857075-3.801267 25.282842s-6.099683 13.731681-10.696587 18.917931c-4.596903 5.18625-10.107211 9.164279-16.531089 11.934208-6.423877 2.769929-13.525397 4.154873-21.304772 4.154873zm0-22.453993c7.897244 0 14.144224-3.388692 18.741128-10.166177 4.596903-6.777486 6.89532-16.000621 6.89532-27.669684 0-11.551192-2.298417-20.56806-6.89532-27.050872-4.596904-6.482812-10.843884-9.72417-18.741128-9.72417s-14.144224 3.241358-18.741127 9.72417-6.895321 15.49968-6.895321 27.050872c0 11.669063 2.298418 20.892198 6.895321 27.669684 4.596903 6.777485 10.843883 10.166177 18.741127 10.166177zm116.218888 22.453993c-14.969403 0-26.402555-4.420033-34.299799-13.260232s-11.845807-22.92537-11.845807-42.255938v-61.881081h26.166857v64.533127c0 11.315454 1.70908 19.21258 5.12729 23.691614s8.368647 6.718517 14.851459 6.718517c6.482813 0 11.492183-2.239483 15.028263-6.718517 3.536079-4.479034 5.304093-12.37616 5.304093-23.691614v-64.533127h25.106038v61.881081c0 19.330568-3.860162 33.415739-11.580602 42.255938s-19.006258 13.260232-33.857792 13.260232zm68.835661-2.121637v-115.275614h41.548725c6.129205 0 11.875248.589338 17.238302 1.768031 5.363053 1.178693 10.048288 3.152974 14.055845 5.922903s7.189981 6.45329 9.547367 11.050193 3.536062 10.31348 3.536062 17.1499c0 8.486591-1.856414 15.470243-5.569298 20.951166-3.712883 5.480923-8.692787 9.57682-14.939861 12.287815l26.166858 46.145606h-29.17251l-22.100386-41.548726h-14.32105v41.548726zm25.990054-62.234688h13.437034c6.836421 0 12.05206-1.443877 15.647074-4.331675s5.392494-7.160497 5.392494-12.818224-1.79748-9.60629-5.392494-11.845807-8.810653-3.359259-15.647074-3.359259h-13.437034zm127.180679 64.356325c-7.307897 0-14.203149-1.267076-20.685961-3.801267-6.482813-2.53419-12.169922-6.276485-17.061498-11.226996-4.891577-4.950511-8.751739-11.10909-11.580603-18.475923-2.828863-7.366832-4.243274-15.882762-4.243274-25.548046 0-9.547414 1.473345-18.063345 4.420078-25.548046 2.946732-7.484702 6.895295-13.820082 11.845806-19.006332 4.950512-5.18625 10.726022-9.134813 17.326703-11.845807 6.600682-2.710994 13.554867-4.066471 20.862765-4.066471 7.425767 0 14.085283 1.502811 19.978749 4.508478 5.893465 3.005668 10.784969 6.512228 14.674656 10.519784l-13.790641 16.619491c-2.946733-2.710995-6.040756-4.921011-9.282162-6.630116s-6.924767-2.563645-11.050193-2.563645c-3.889687 0-7.573048.85454-11.050193 2.563645s-6.482767 4.154856-9.016958 7.337328c-2.53419 3.182471-4.537938 7.072101-6.011305 11.669004-1.473366 4.596903-2.210038 9.783075-2.210038 15.558672 0 11.9048 2.534152 21.127936 7.602533 27.669683 5.06838 6.541747 11.845764 9.812571 20.332355 9.812571 4.714772 0 8.928537-1.031341 12.641421-3.094054 3.712883-2.062713 6.983707-4.626332 9.812571-7.690934l13.790641 16.265884c-9.665284 11.315454-22.10031 16.973097-37.305452 16.973097zm51.508958-2.121637v-115.275614h72.13566v21.923583h-46.145606v23.161204h39.250286v21.74678h-39.250286v26.520464h47.913637v21.923583z"/></g></g></svg>