<svg height="17" viewBox="0 0 26 17" width="26" xmlns="http://www.w3.org/2000/svg"><g fill="#fff" fill-rule="evenodd"><path d="m24.0773684 0h-22.15473682c-1.06052632 0-1.92263158.8568-1.92263158 1.9108v13.1784c0 1.054.86210526 1.9108 1.92263158 1.9108h22.15473682c1.0605263 0 1.9226316-.8568 1.9226316-1.9108v-13.1784c0-1.054-.8621053-1.9108-1.9226316-1.9108zm1.6147369 14.722h-25.37052635v-10.1592h25.37052635z"/><path d="m23.5026316 8.6224c-.0889474-.0068.0622631-.1156-.0472105-.2176.0410526.0408 0-.1224-.0417369-.2312-.0889474-.2516-.3003684-.4012-.5952631-.5644-.2524737-.1428-.4378948-.0476-.6698422-.1972.0068422.0068-.0691052-.0884-.185421-.0612-.6568421.1224-1.0673684.714-1.3957895 1.2784-.0273684.0476 0 .1292-.0273684.1632 0 0-.0957895.1836-.1436842.25772 0 0-.0068421.00748-.0068421.01428-.1231579.3196-.074579.7344-.2326316 1.0404-.13.238.1094737.5984-.0547368.8228-.0342106.0544-.2189474.0068-.2873685.0544-.1436842.1156-.0342105.44132.0478948.51.068421.04692.1635263.0068.2052631.08092.0684211.12308-.0417368.306 0 .476.0547369.23868.061579.4556.1231579.7344.0821053.35428.061579.7004.1573685.9928.1505263.46308.533.0544.7389473.1972.0136842 0 .1984211.1156.2873684.034.0472106-.0408-.0342105-.32572-.0547368-.3944-.0273684-.068-.1778947-.4556-.1368421-.4352-.0957895-.0408-.0136842-.6256-.0478947-.78132-.0273685-.102-.1019474-.68748.0075263-.74868.0547368-.034.1566842.0272.2052631.0204.2326316-.0544.5131579-.23868.6636842-.3468.3078948-.23188.7868421-.6392.9305264-.816.26-.3128.6424736-.8976.5405263-1.5164.013.08908.0540526-.36652.0198421-.36652zm-1.9021053 1.8088c-.0478947.04148-.377.3128-.4173684.272-.0342105-.034.0410526-.40868.0547368-.4284.0752632-.136.1231579-.5644.1642106-.57188.0615789-.0136.0342105-.2924.0547368-.34.1984211-.3536.4105263-.9044.7040526-1.14852.2127895-.17.1512106.17.191579.3128.2333158.7956-.3277369 1.5504-.7519474 1.904z"/><path d="m19.7257895 10.5604c-.0342106.0408-.2326316.2108-.2394737.2108-.1710526.2176-.191579.38148-.3626316.6392-.0273684.04692-.0889474.04692-.1710526.07412-.1094737.04148-.1984211.4284-.4112105.3876-.321579-.0612-1.0673685.2516-1.2719474-.2652-.0964737-.2312-.1163158-.4216-.191579-.72148-.1163158-.4352-.2052631-1.06692-.2257894-1.7816 0-.0136-.0136842-.034-.0273685-.034v.01428c-.2531579-.6868.8278948-.3264 1.0057895-.1904.3421053.2584.0478948 1.0268.191579 1.5708.0478947.1632.0068421.476.0417368.6188.0273684.12308.0068421.306.1984211.12308.1293157-.12308.2668421-.34748.4036842-.57188.1505263-.2516.2531579-.7752.1908947-1.00572-.0342105-.136 0-.35428-.0068421-.374-.3421053-.89148 1.0536842-.442 1.1631579-.0272.0957895.3468-.1505263 1.1356-.2873684 1.3328z"/><path d="m15.6342105 10.0436c-.0615789.04148-.0136842.1632.0075263.1972.1019474.32028-.1785789.9044.0273685 1.122.1163158.1224-.0547369.7276-.1436842.748-.2333158.068-.6027895.0816-.6096316-.0068-.0205263-.2924-.0342106-.6732-.0957895-.95132-.0615789-.26588.0478947-.5032-.0143684-.7616-.0547369-.2244-.0198421-.3264-.2942105-.272-.1710527.034-.5747369-.0272-.6568422-.0748-.1642105-.0952-.0821052-.52972.0752632-.58412.321579-.102.2668421.034.3557895 0 .1094737-.04148.3215789.0952.4112105.034.0266842-.0204.0136842-.2992-.0143684-.3604.0205263.0544 0-.1428-.0273684-.21692-.0342106-.0884-.0889474-.6052-.0889474-.646-.061579-.0816.0068421-.2244-.0342105-.2176.0198421-.0068-.0752632-.4896-.0752632-.4896-.0547368-.238 0-.3332-.0478947-.5576-.0608948-.25364.0964737-.45084.0348947-.70244-.0478947-.2108-.0273684-.7888.2121053-.85.2736842-.0612.6157894.1156.7663158.2108.3626315.2176.0889473.7004.1778947 1.1084.0273684.1224-.0136842.3808-.0068421.4012.1710526.442-.0068421 1.0744.1026316 1.462.0472105.1496-.1573684.6596-.0964737.748.1505263.21148.1368421-.17.1368421-.204 0-.1224.2189474-.1224.3078947-.068.0472106.034.1231579.034.191579.07412.1436842.0884.2326316.3604.3277368.43588.0547369.034.1778948.034.2052632.07412.0964737.17-.2052632.2312-.2394737.2448-.1423158.04828-.7854737.01428-.8949474.10268z"/><path d="m14.0057895 11.3152c-.1231579-.17-.5268421-.18972-.6021053-.07412-.198421.29852-.4242105.18972-.6226316.27132-.4789473.1904-.8826315-.544-.9647368-.9112-.0957895-.4556.4242105-.2924.6226316-.1904 0-.0068.1847368.0272.1642105.0272.1231579.00748.3763158-.068.4926316-.1156h.0068421c.0205263 0 .198421-.0612.2052631-.07412.0273685-.0544-.0478947-.37468-.0273684-.37468-.0821052-.0136.1436842-1.1016.1231579-1.2036-.0957895-.3944.1642105-.8772.0821053-1.1288-.0410527-.136-.4926316-.2992-.5610527-.34-.13-.0748-.6431579-.1496-.7115789-.0884-.2531579.2584-.65.6936-.8826316 1.1152-.0136842.0204-.0889474.2176-.1163158.2244-.1163158.0476-.198421.8976-.3147368 1.1016-.1778948.3128-.061579 1.2784.0547368 1.42868.2257895.27812.3147369.49572.711579.75412.2463158.1564.6910526.1904.7868421.1632.1915789-.0612.2463158.1428.4036842.102.1436842-.04148.4447368-.0748.6431579-.1428.1436842-.0476.7321052-.2312.5063158-.544zm-1.9363158-1.9856c.0615789-.10132.1163158-.4828.2531579-.66572.0273684-.0476.1368421-.204.1368421-.2108.0068421 0 .0821052.8092.0615789.76772.0273685.0476-.0068421.49028-.0615789.5372 0 0-.4036842-.0068-.4447369-.04692-.0205263-.02788.0205264-.32708.0547369-.38148z"/><path d="m11.0978947 11.5872c-.1505263-.1088-.6089473-.34-.8278947-.2108-.44473684.27812-.97157895.1768-1.16315789-.3604-.08894737-.2448-.00684211-.4284-.06842106-.714-.09578947-.4488.49263158-.04148.84842106-.1156.21894739-.04148.54736839.0408.63631579-.15028.0068421-.0068.0068421-.0136.0136842-.0136 0 0 0-.01428-.0068421-.01428.0068421.00748.0068421.00748.0136842.00748.0478947 0 .0410526-.612.0684211-.7004-.061579.0204.0547368-.1292.0205263-.2244-.1436842-.4556-.0136842-1.0336-.1984211-1.4416-.0957894-.2176-1.21789471-.4216-1.36157892-.2244-.17789474.2448-.26.2448-.44473684.4012-.05473685.0408-.30789474.2652-.37631579.3672-.20526316.3128-.45157895 1.0948-.32157895 1.6592.08210526.374-.10263158.7888-.03421053 1.0744.01368421.0408.09578948.0952.09578948.1428.0068421.0136.15052631.4216.27368421.49572.06842105.04148.12315789 0 .15736842.0476.03421053.034.45157895.2924.58842105.3672.3831579.2176 1.49842107-.0204 1.53947367-.0612.0273684-.01904.7526316-.18224.5473684-.33184zm-1.73105259-3.094c.09578947-.068.10947368.4828.1368421.6052.01368421.0612-.03421053.35428-.04789474.3672-.02736842.01428-.36263158-.0204-.38315789-.0476-.10947369-.1292.24631579-.8908.29421053-.9248z"/><path d="m7.99842105 11.9136c-.01368421 0-.17105263.04148-.17105263.04148-.16421053.0612-.45157895.068-.52.136-.14368421.1496-.35578947-.15028-.36947368-.1904-.04789474-.1632-.06842106-.2788-.11631579-.408-.15052632-.38828-.2531579-.74868-.41052632-1.14308-.06842105-.16252-.06842105-.51-.1368421-.544.06157894.034-.02052632-.1156-.02736842-.1224-.10263158-.0612-.05473685-.476-.13-.5576-.05473685-.0612-.04105264.0748-.05473685.0748.06842106.21692-.13.66572-.05473684.7208.01368421.01428-.0068421.5984 0 .5984.04105263.15028-.04789474.8772-.1368421 1.03428-.1231579.2108-1.09473685.29852-1.2931579.0544-.15736842-.1904-.39-.5848-.50631579-.7684-.04789474-.06868-.04789474-.17-.08894737-.2244-.21210526-.26588-.14368421.0544-.1368421.2312.01368421.3468.19842105.7344-.17105263.8636-.31473685.1156-.82789474.21148-.94421053-.07412-.13-.3264-.07526316-1.0676-.14368421-1.2104-.08894737-.1632-.06157895-.986-.06157895-1.0676.00684211-.10132.02736842-.46852.02052632-.5032-.03421053-.21896.02736842-.45696.0068421-.53856-.10947368-.4352.43789474-.4896.62263158-.5304.02736842-.0068.55421053.0136.60210527.0748.07526315.0884.03421052.102.14368421.2312.20526315.2312.34210526.7412.49263157.9316.1231579.15028.28052632.476.35578948.646.13.2856.04789474-.578.16421052-.8024.13-.2448.09578948-.5848.21210527-.782.15052631-.2516.23947368-.7684.41736842-1.0404.09578947-.1564.62947368-.0408.73210526-.0204.30105263.0612.26684211-.0408.47210527.17.14368421.1496.36947368 1.1356.47894736 1.53.04789474.1632.06157895.7548.19157895 1.1016.06842105.1768.30105263.8704.34210526 1.2988v.0068c.06157895.0748.28736843.7208.21894737.782z"/></g></svg>